<svg xmlns:xlink="http://www.w3.org/1999/xlink" xmlns="http://www.w3.org/2000/svg" class="RWYkj d H0" viewBox="0 0 128 24" width="68" height="12" aria-label="" title=""><path d="M 12 0C5.388 0 0 5.388 0 12s5.388 12 12 12 12-5.38 12-12c0-6.612-5.38-12-12-12z" transform="" fill="#00AA6C"></path><path d="M 12 0C5.388 0 0 5.388 0 12s5.388 12 12 12 12-5.38 12-12c0-6.612-5.38-12-12-12z" transform="translate(26 0)" fill="#00AA6C"></path><path d="M 12 0C5.388 0 0 5.388 0 12s5.388 12 12 12 12-5.38 12-12c0-6.612-5.38-12-12-12z" transform="translate(52 0)" fill="#00AA6C"></path><path d="M 12 0C5.388 0 0 5.388 0 12s5.388 12 12 12 12-5.38 12-12c0-6.612-5.38-12-12-12z" transform="translate(78 0)" fill="#00AA6C"></path><path d="M 12 0C5.389 0 0 5.389 0 12c0 6.62 5.389 12 12 12 6.62 0 12-5.379 12-12S18.621 0 12 0zm0 2a9.984 9.984 0 0110 10 9.976 9.976 0 01-10 10z" transform="translate(104 0)" fill="#00AA6C"></path></svg>