<svg xmlns:xlink="http://www.w3.org/1999/xlink" xmlns="http://www.w3.org/2000/svg" class="RWYkj d H0" viewBox="0 0 128 24" width="68" height="12" aria-label="" title=""><path d="M 12 0C5.388 0 0 5.388 0 12s5.388 12 12 12 12-5.38 12-12c0-6.612-5.38-12-12-12z" transform="" fill="#00AA6C"></path><path d="M 12 0C5.388 0 0 5.388 0 12s5.388 12 12 12 12-5.38 12-12c0-6.612-5.38-12-12-12z" transform="translate(26 0)" fill="#00AA6C"></path><path d="M 12 0C5.388 0 0 5.388 0 12s5.388 12 12 12 12-5.38 12-12c0-6.612-5.38-12-12-12z" transform="translate(52 0)" fill="#00AA6C"></path><path d="M 12 0C5.388 0 0 5.388 0 12s5.388 12 12 12 12-5.38 12-12c0-6.612-5.38-12-12-12z" transform="translate(78 0)" fill="#00AA6C"></path><path d="M 12 0C5.388 0 0 5.388 0 12s5.388 12 12 12 12-5.38 12-12c0-6.612-5.38-12-12-12zm0 2a9.983 9.983 0 019.995 10 10 10 0 01-10 10A10 10 0 012 12 10 10 0 0112 2z" transform="translate(104 0)" fill="#00AA6C"></path></svg>